<?xml version="1.0" encoding="UTF-8"?>
<svg id="Layer_1" xmlns="http://www.w3.org/2000/svg" xmlns:xmlns="http://www.w3.org/2000/svg" xmlns:v="https://vecta.io/nano" version="1.1" viewBox="0 0 248 44">
  <!-- Generator: Adobe Illustrator 29.2.1, SVG Export Plug-In . SVG Version: 2.1.0 Build 116)  -->
  <defs>
    <style>
      .st0 {
        fill: #08cfe8;
      }

      .st1 {
        fill-opacity: 0;
      }

      .st1, .st2 {
        fill: #006dca;
      }
    </style>
  </defs>
  <path class="st1" d="M0,0h60v44H0V0Z"/>
  <path class="st0" d="M35,19.9l.3-.5c.5-1.1,1.2-2,2-2.9.7-.5,1.5-.8,2.3-.9.9,0,1.7.1,2.5.5.8.4,1.4,1,1.8,1.8.4.7.5,1.6.5,2.4,0,.3,0,.5-.2.8,0,.2-.1.3-.2.5l-6.6,12c-.6,1.1-1.4,2.2-2.2,3.2-2.6,3-6,5.2-9.8,6.3-1.9.6-3.9.8-5.9.8-2,0-4-.4-5.9-1-1.2-.4-2.3-.8-3.3-1.4-1-.6-2-1.3-3-2.1-1.5-1.3-2.9-2.8-4-4.5-1.1-1.7-1.9-3.5-2.5-5.4-.4-1.3-.6-2.6-.7-3.9-.2-2.6,0-5.2.9-7.7.4-1.2.9-2.5,1.6-3.6L9.1,2.4c0-.1.2-.3.3-.4.2-.2.4-.4.6-.6.7-.5,1.5-.8,2.3-.9.9,0,1.7.1,2.5.6.8.4,1.4,1,1.8,1.8.4.7.6,1.6.5,2.4-.3,1.1-.7,2.2-1.4,3.2l-.3.5-5.4,9.7c-.7,1.3-1.2,2.7-1.3,4.2-.3,2.6.3,5.2,1.8,7.4.6.9,1.4,1.8,2.2,2.5.5.4,1.1.8,1.7,1.2.6.3,1.2.6,1.9.8,2.1.7,4.5.8,6.6.1.7-.2,1.4-.5,2.1-.8.7-.3,1.3-.7,1.9-1.2.6-.5,1.1-1,1.6-1.5.5-.6.9-1.2,1.2-1.8l5.4-9.7s0,0,0,0Z"/>
  <path class="st2" d="M24.9,24.1l-.3.5c-.5,1.1-1.2,2-2,2.9-.7.5-1.5.8-2.3.9-1.7.1-3.4-.8-4.2-2.3-.4-.7-.6-1.6-.5-2.4,0-.3,0-.5.2-.8,0-.2.1-.3.2-.5l6.6-12c1.3-2.3,3-4.3,5-6,2.1-1.6,4.4-2.9,7-3.6C36.6.2,38.6,0,40.5,0c2,0,4,.4,5.9,1,1.2.4,2.3.9,3.3,1.4,2.8,1.6,5.2,3.9,7,6.6,1.1,1.7,1.9,3.5,2.5,5.4.4,1.3.6,2.6.7,3.9.2,2.6,0,5.3-.9,7.8-.4,1.2-.9,2.5-1.6,3.6l-6.6,12c0,.1-.2.3-.3.4-.2.2-.4.4-.6.6-.7.5-1.5.8-2.3.9-1.7.1-3.4-.8-4.2-2.4-.4-.7-.6-1.6-.5-2.4.3-1.1.7-2.2,1.4-3.2l.3-.5,5.4-9.7c.7-1.3,1.2-2.7,1.3-4.2,0-.7,0-1.5,0-2.2-.2-1.8-.8-3.6-1.8-5.2-.6-.9-1.4-1.8-2.2-2.5-.5-.4-1.1-.8-1.7-1.2-.6-.3-1.2-.6-1.9-.8-1.1-.3-2.2-.5-3.3-.6-1.1,0-2.2.1-3.3.4-.7.2-1.4.5-2.1.8-1.3.7-2.5,1.6-3.4,2.7-.5.6-.9,1.2-1.3,1.8l-5.4,9.7Z"/>
  <path class="st2" d="M80.5,24.9v1.8c0,1.1.3,2,.9,2.6.6.5,1.7.8,3.2.8s1.9-.3,2.4-.9c.5-.6.9-1.6,1.1-3,.2-1.4.3-3.7.3-6.6s-.2-3.5-.7-5c-.4-1.5-1-2.7-1.8-3.7-.7-.9-1.5-1.7-2.5-2.4-.9-.6-1.9-1.1-2.8-1.3-.9-.3-1.9-.4-2.8-.4-.8,0-1.6,0-2.4.3-.8.2-1.6.5-2.4.9-.8.4-1.6.9-2.3,1.6s-1.3,1.5-1.9,2.4c-.6.9-1,2-1.3,3.3-.3,1.3-.5,2.7-.5,4.3v4.4c.1,0,.5,3,.5,3,.2.8.4,1.4.7,1.9.3.4.7.7,1.1.9.4.2.9.3,1.6.3,1.5,0,2.5-.3,3.2-.8.6-.6.9-1.4.9-2.6v-1.8h5.6,0ZM77.7,12.3c.6,0,1.1.1,1.5.3.4.2.7.6.9,1.2.2.6.3,1.3.3,2.3v4.1h-5.6v-4c0-1.4.2-2.5.7-3,.5-.6,1.2-.8,2.2-.9ZM98.7,25.1v-6.3c.4-.7.9-1,1.5-1s1.1.4,1.4,1.3.6,1.8.6,2.9-.2,2-.5,2.8c-.3.8-.8,1.2-1.4,1.2s-1.1-.3-1.5-.9h0ZM98.7,32v-2.9c1.4.8,2.9,1.1,4.6,1.1s3.3-.7,4.4-2.2c1.2-1.5,1.8-3.4,1.8-6s-.6-4.7-1.7-6.2c-1.1-1.5-2.6-2.3-4.4-2.3s-3.5.6-5,1.8c-.3-.6-.7-1.1-1.2-1.3-.6-.2-1.3-.3-2.1-.3s-2,.3-2.7,1-1,1.7-1,3.1v14.3c0,1.8.4,3.1,1,3.8.6.7,1.5,1.1,2.8,1.1s2.2-.4,2.8-1.2c.6-.8.9-2.1.9-3.9h0ZM119.8,25.1v-6.3c.4-.7.9-1,1.5-1s1.1.4,1.4,1.3c.4.9.6,1.8.6,2.9s-.2,2-.5,2.8c-.3.8-.8,1.2-1.4,1.2s-1.1-.3-1.5-.9h0ZM119.8,32v-2.9c1.4.8,2.9,1.1,4.6,1.1s3.3-.7,4.4-2.2,1.8-3.4,1.8-6-.6-4.7-1.7-6.2c-1.1-1.5-2.6-2.3-4.4-2.3s-3.5.6-5,1.8c-.3-.6-.7-1.1-1.2-1.3-.5-.2-1.3-.3-2.1-.3s-2,.3-2.7,1c-.7.7-1,1.7-1,3.1v14.3c0,1.8.4,3.1.9,3.8.6.7,1.5,1.1,2.8,1.1s2.2-.4,2.8-1.2.9-2.1.9-3.9h0ZM140.9,24.9v-14.4c0-1.5-.3-2.5-.9-3s-1.6-.8-2.8-.8-.8,0-1.2.1c-.4,0-.7.2-1,.4-.3.2-.6.5-.8.8-.2.3-.4.7-.5,1.2-.1.4-.2,1-.2,1.6v14.3c0,1.8.4,3.1,1,3.8.6.7,1.5,1.1,2.8,1.1s2.2-.4,2.8-1.2.9-2.1.9-3.9h0ZM161.6,20.5v-2.4c-.1-.6-.2-1.2-.3-1.8-.1-.6-.3-1.1-.6-1.4-.2-.3-.6-.6-1-.8-.4-.2-.9-.3-1.5-.3-1,0-1.7.1-2.3.3-.6.2-1,.6-1.2,1s-.4,1-.4,1.7v5.5c0,1-.1,1.7-.3,2.1s-.6.6-1.3.6-.5,0-.6,0c-.2,0-.3-.1-.4-.2-.1-.1-.2-.2-.2-.4,0-.1-.1-.3-.1-.5v-.6c0,0,0-.8,0-.8v-5.5c0-1-.3-1.8-.9-2.3-.6-.5-1.6-.7-3-.7s-.9,0-1.2.1-.6.3-.9.5-.5.6-.6,1-.3,1-.4,1.7-.2,1.5-.2,2.4v3.2c0,1.3.2,2.4.6,3.6.4,1.1,1.1,2,2.1,2.8.9.7,2.1,1.1,3.4,1.1h.9c.3,0,.6-.1,1-.2.4,0,.7-.2,1.1-.3l1.1-.4c0,1.1-.3,2-.8,2.6s-1.4.9-2.6.9-1,0-1.5-.3-.9-.4-1.3-.6c-.4-.2-.7-.4-1.1-.6-.4-.2-.7-.3-1-.3s-.7.2-1,.5c-.2.3-.4.6-.4,1s.2.8.5,1.3.8,1,1.4,1.5,1.4.9,2.4,1.3,2.1.5,3.4.5,2.8-.2,3.9-.6c1.1-.4,2-1,2.7-1.8s1.2-1.7,1.6-2.7c.4-1,.7-2.2.9-3.6.2-1.5.3-4.2.3-8.1ZM179.1,16.3h-5.8v-4h7.4c1.3,0,2.2-.2,2.7-.6.6-.4.8-1.1.8-2.1s-.3-1.8-1-2.2c-.6-.4-1.6-.6-2.9-.6h-11c-2.6,0-3.9,1.4-3.9,4.1v14.3c0,1.8.3,3.1.9,3.8.6.7,1.6,1.1,2.9,1.1h11c1.3,0,2.3-.2,2.9-.6.6-.4,1-1.2,1-2.3s-.3-1.6-.8-2c-.6-.4-1.5-.6-2.7-.6h-7.4v-3.6h5.5c1.2,0,2.1-.2,2.7-.5s.9-.9.9-1.7-.2-1.6-.7-2c-.5-.4-1.3-.6-2.5-.6h0ZM196.9,18.8v6.3c-.4.6-.9.9-1.5.9s-1.1-.4-1.4-1.2c-.3-.8-.5-1.8-.5-2.8s.2-2.1.5-2.9c.4-.9.8-1.3,1.4-1.3s1.1.3,1.5,1ZM192.3,30.3c2,0,3.7-.5,5.1-1.5.5.8,1.5,1.3,3,1.3s2.4-.3,3-.8c.6-.5.9-1.5.9-2.8v-8.8c0-1.4-.3-2.4-1-2.9-.7-.5-1.6-.8-2.9-.8s-2.3.6-2.9,1.7c-1.6-1.3-3.3-1.9-5.1-1.9s-3.3.8-4.5,2.3c-1.2,1.5-1.8,3.6-1.8,6.2s.6,4.5,1.8,6,2.7,2.2,4.4,2.2h0ZM215.4,13.6c-2.4,0-4.4.5-5.9,1.5-1.5,1-2.2,2.3-2.2,3.9s.2,1.7.6,2.4c.4.6,1.1,1.2,2.1,1.6.6.4,1.5.8,2.5,1l2.6.7c.7.2,1,.5,1,.8,0,.6-.6.9-1.9.9s-1.9-.2-3-.8c-1.1-.5-1.9-.8-2.4-.8s-.9.1-1.2.4c-.3.2-.4.6-.4,1,0,.7.4,1.4,1.1,2,1.5,1.3,3.6,2,6.6,2s2.8-.2,4-.5c1.2-.3,2.1-.8,2.8-1.3.7-.5,1.2-1.1,1.5-1.7s.5-1.2.5-1.8c0-1.2-.3-2.2-1-3-.6-.8-1.8-1.5-3.5-2.1-.5-.2-1.1-.5-2-.7-.9-.2-1.5-.5-2-.7s-.7-.5-.7-.9.4-.8,1.3-.8,1.3.1,1.9.3c.6.2,1.1.5,1.4.7.4.3.7.5,1.1.8s.8.3,1.1.3.7-.1,1-.4.4-.5.4-.8c0-1-.7-2-2.1-2.8s-3.2-1.3-5.3-1.3ZM244.1,20.5v-2.4c-.1-.6-.2-1.2-.3-1.8-.1-.6-.3-1.1-.6-1.4-.2-.3-.6-.6-1-.8-.4-.2-.9-.3-1.5-.3-1,0-1.8.1-2.3.3-.6.2-1,.6-1.2,1s-.4,1-.4,1.7v5.5c0,1-.1,1.7-.3,2.1s-.6.6-1.3.6c-.2,0-.4,0-.6,0-.2,0-.3-.1-.4-.2,0-.1-.2-.2-.2-.4,0-.1-.1-.3-.1-.5v-.6s0-.8,0-.8v-5.5c0-1-.3-1.8-.9-2.3-.6-.5-1.6-.7-3-.7s-.9,0-1.2.1-.6.3-.9.5-.5.6-.6,1c-.1.4-.3,1-.4,1.7-.1.7-.2,1.5-.2,2.4v3.2c0,1.3.2,2.4.6,3.6.4,1.1,1.1,2.1,2,2.8,1,.7,2.1,1.1,3.4,1.1h.9c.3,0,.6-.1,1-.2.3,0,.7-.2,1-.3l1.1-.4c0,1.1-.2,2-.8,2.6s-1.4.9-2.6.9-1,0-1.5-.3-.9-.4-1.3-.6c-.4-.2-.7-.4-1.1-.6-.4-.2-.7-.3-1-.3-.4,0-.7.2-1,.5-.2.3-.4.6-.4,1s.2.8.5,1.3.8,1,1.4,1.5,1.4.9,2.5,1.3,2.1.5,3.3.5,2.8-.2,3.9-.6c1.1-.4,2-1,2.7-1.8.7-.8,1.3-1.7,1.6-2.7.4-1,.7-2.2.9-3.6.2-1.5.3-4.2.3-8.1h0Z"/>
</svg>