<svg xmlns="http://www.w3.org/2000/svg" viewBox="0 0 74.6 54.7"><path fill="none" d="M0 0h60v44H0z" style="fill-opacity:0;fill:#006dca" vector-effect="non-scaling-stroke"/><path d="m43.5 24.7.3-.6c.6-1.3 1.5-2.5 2.5-3.6.8-.6 1.8-1 2.9-1.1 1.1 0 2.1.2 3.1.7.9.5 1.7 1.3 2.2 2.2s.7 2 .6 3c0 .3-.1.7-.2 1 0 .2-.1.4-.2.6l-8.2 14.9c-.8 1.4-1.7 2.8-2.8 4-3.2 3.8-7.4 6.5-12.1 7.8-2.4.7-4.8 1-7.3 1s-5-.5-7.4-1.2c-1.4-.5-2.8-1-4.2-1.8-1.3-.8-2.5-1.6-3.7-2.6-1.9-1.6-3.6-3.5-4.9-5.6S1.7 39.1 1 36.7q-.75-2.4-.9-4.8c-.3-3.2 0-6.5 1.1-9.6.5-1.5 1.1-3 1.9-4.5L11.3 3c.1-.2.2-.3.4-.5.2-.3.5-.5.7-.7.8-.6 1.8-1 2.9-1.1 1.1 0 2.1.2 3.1.7.9.5 1.7 1.3 2.2 2.2s.7 2 .6 3c-.3 1.4-.9 2.8-1.7 4l-.3.6-6.7 12.1c-.9 1.6-1.5 3.4-1.7 5.2s0 3.7.5 5.5c.4 1.3 1 2.6 1.7 3.7.8 1.2 1.7 2.2 2.8 3.1.7.5 1.3 1 2.1 1.5.8.4 1.5.7 2.3 1 2.7.9 5.5.9 8.2.2.9-.3 1.7-.6 2.6-1 .8-.4 1.6-.9 2.3-1.5s1.4-1.2 2-1.9 1.1-1.5 1.5-2.3z" style="fill:#08cfe8" vector-effect="non-scaling-stroke"/><path d="m31 30-.3.6c-.6 1.3-1.5 2.5-2.5 3.6-.8.7-1.8 1-2.9 1.1-2.2.1-4.2-1-5.3-2.9-.5-.9-.7-2-.6-3 0-.3.1-.7.2-1 0-.2.1-.4.2-.6L28 12.9c1.6-2.9 3.7-5.4 6.3-7.4S39.8 1.9 43 1c2.4-.7 4.9-1 7.4-1s5 .5 7.3 1.2q2.1.75 4.2 1.8c3.5 2 6.4 4.8 8.6 8.2 1.3 2.1 2.4 4.3 3.1 6.7q.75 2.4.9 4.8c.3 3.3 0 6.5-1.1 9.6-.5 1.5-1.1 3-1.9 4.5l-8.2 14.9c-.1.2-.2.4-.4.5-.2.3-.5.5-.7.7-.8.7-1.8 1.1-2.9 1.1-2.2.1-4.2-1-5.2-2.9-.5-.9-.7-2-.6-3 .3-1.4.9-2.8 1.7-4l.3-.6 6.7-12.1c.9-1.6 1.4-3.4 1.7-5.2v-2.8c-.2-2.3-1-4.5-2.2-6.4-.8-1.2-1.7-2.2-2.8-3.1-.7-.5-1.3-1-2.1-1.5-.8-.4-1.5-.7-2.3-1-1.3-.4-2.7-.7-4.1-.7s-2.8.2-4.1.5c-.9.3-1.7.6-2.6 1-1.6.8-3.1 2-4.3 3.4-.6.7-1.1 1.5-1.6 2.3L31.1 30Z" style="fill:#006dca" vector-effect="non-scaling-stroke"/></svg>